<svg xmlns="http://www.w3.org/2000/svg" width="12" height="12" viewBox="0 0 12 12" fill="none">
  <path d="M10.523 6.39793L7.14797 9.77293C7.0423 9.8786 6.89898 9.93797 6.74953 9.93797C6.60009 9.93797 6.45677 9.8786 6.35109 9.77293C6.24542 9.66726 6.18606 9.52394 6.18606 9.37449C6.18606 9.22505 6.24542 9.08173 6.35109 8.97605L8.76563 6.56246H1.875C1.72582 6.56246 1.58274 6.5032 1.47725 6.39771C1.37176 6.29222 1.3125 6.14914 1.3125 5.99996C1.3125 5.85078 1.37176 5.7077 1.47725 5.60221C1.58274 5.49672 1.72582 5.43746 1.875 5.43746H8.76563L6.35203 3.02246C6.24636 2.91679 6.18699 2.77347 6.18699 2.62402C6.18699 2.47458 6.24636 2.33126 6.35203 2.22558C6.4577 2.11991 6.60103 2.06055 6.75047 2.06055C6.89991 2.06055 7.04323 2.11991 7.14891 2.22558L10.5239 5.60059C10.5764 5.65291 10.618 5.71509 10.6463 5.78354C10.6747 5.85199 10.6892 5.92536 10.6891 5.99945C10.689 6.07354 10.6743 6.14688 10.6458 6.21527C10.6173 6.28365 10.5755 6.34572 10.523 6.39793Z" fill="url(#paint0_linear_525_4116)"/>
  <defs>
    <linearGradient id="paint0_linear_525_4116" x1="10.6891" y1="5.99926" x2="1.3125" y2="5.99926" gradientUnits="userSpaceOnUse">
      <stop stop-color="#A965E9"/>
      <stop offset="1" stop-color="#3B5AEF"/>
    </linearGradient>
  </defs>
</svg>